<svg clip-rule="evenodd" fill-rule="evenodd" stroke-linejoin="round" stroke-miterlimit="2" viewBox="0 0 560 400" xmlns="http://www.w3.org/2000/svg"><g fill="#1a365d" transform="matrix(4.5 0 0 4.5 78.5 130)"><path d="m43.747 21.422v-13.054h3.685c1.136 0 2.14.251 3.012.753.87.499 1.572 1.245 2.018 2.143.478.926.72 1.99.726 3.192v.834c0 1.23-.24 2.31-.717 3.236-.447.9-1.157 1.645-2.035 2.134-.88.496-1.904.75-3.076.762zm1.721-11.637v10.23h1.812c1.326 0 2.358-.413 3.093-1.238.74-.825 1.111-2 1.111-3.523v-.762c0-1.483-.35-2.633-1.049-3.452-.693-.825-1.68-1.244-2.958-1.255zm17.708 5.603h-5.658v4.626h6.572v1.408h-8.293v-13.054h8.204v1.417h-6.483v4.195h5.658zm7.316-2.018 3.129-5.002h2.026l-4.124 6.473 4.223 6.581h-2.044l-3.21-5.093-3.228 5.093h-2.034l4.232-6.58-4.133-6.474h2.017l3.147 5.003zm10.033 3.184h-4.376v-1.354h4.376zm10.902-6.769h-4.197v11.637h-1.713v-11.637h-4.187v-1.417h10.096v1.417zm6.724 6.356h-3.066v5.281h-1.73v-13.054h4.321c1.47 0 2.6.335 3.389 1.004.795.67 1.192 1.644 1.192 2.923 0 .813-.221 1.521-.663 2.125-.436.604-1.046 1.055-1.829 1.354l3.066 5.54v.108h-1.847l-2.833-5.28zm-3.066-1.407h2.645c.855 0 1.533-.222 2.035-.664.508-.442.762-1.034.762-1.775 0-.807-.242-1.426-.726-1.856-.478-.43-1.172-.649-2.08-.654h-2.636zm16.802 3.281h-5.469l-1.229 3.407h-1.775l4.985-13.054h1.506l4.994 13.054h-1.766zm-4.949-1.416h4.438l-2.224-6.106zm9.718 4.823v-13.054h3.685c1.136 0 2.14.251 3.013.753.869.499 1.572 1.245 2.017 2.143.478.926.72 1.99.726 3.192v.834c0 1.23-.239 2.31-.717 3.236-.447.9-1.157 1.644-2.035 2.134-.879.496-1.904.75-3.075.762zm1.722-11.637v10.23h1.811c1.327 0 2.358-.413 3.093-1.238.741-.825 1.112-2 1.112-3.523v-.762c0-1.483-.35-2.633-1.049-3.452-.693-.825-1.68-1.244-2.959-1.255zm17.707 5.603h-5.657v4.626h6.572v1.408h-8.294v-13.054h8.204v1.417h-6.482v4.195h5.657z" fill-rule="nonzero"/><path d="m15.356 0-4.346 6.86-1.27 6.018 6.99-5.168 10.22 9.439zm14.95 20.416-7.46-17.489-2.887 2.424z"/><path d="m31.193 25.546-3.75-7.203-4.56-4.111.966 8.654-13.26 4.158zm-6.273 5.042-.649-3.718-18.18 1.454 18.83 2.264z"/><path d="m15.142 24.968-7.956-3.488 3.04-13.597-9.009 18.645 8.094.345 5.831-1.906zm-3.772-21.632-11.37 15.224 3.536 1.295 7.834-16.52zm12.48 19.55-13.26 4.158 20.603-1.498-7.344-2.66z"/><path d="m7.186 21.48 3.04-13.596-9.009 18.645 5.97-5.048zm9.544-13.77 10.22 9.438-11.593-17.148 1.374 7.71z"/></g></svg>