<svg width="1024" height="198" viewBox="0 0 1024 198" fill="none" xmlns="http://www.w3.org/2000/svg">
<path d="M851.832 68.9382L821.817 65.9794V28.8613H796.148V42.6828C796.148 71.6183 807.592 81.6568 821.366 86.1216H796.148V120.281C796.148 153.847 812.733 167.076 844.527 167.076C876.32 167.076 892.899 153.847 892.899 120.281V115.739C892.899 76.0535 871.375 70.9186 851.832 68.9441M867.23 120.281V143.578H821.817V86.2639C826.804 87.8293 832.075 88.7009 837.216 89.4777L867.23 94.0196V120.281Z" fill="white"/>
<path d="M928.434 28.8613C920.335 28.8613 914.809 34.3875 914.809 42.4812C914.809 50.5748 920.335 56.107 928.434 56.107C936.534 56.107 942.054 50.5808 942.054 42.4812C942.054 34.3816 936.528 28.8613 928.434 28.8613Z" fill="white"/>
<path d="M1013.34 68.3494H990.637V45.0527H964.969C964.969 78.6191 981.553 91.8476 1013.34 91.8476H1024V68.3553H1013.34V68.3494Z" fill="white"/>
<path d="M990.629 143.578V88.6895H964.961V120.275C964.961 153.842 981.545 167.07 1013.33 167.07H1023.99V143.578H990.629Z" fill="white"/>
<path d="M941.278 68.3496H915.609V167.068H941.278V68.3496Z" fill="white"/>
<path d="M564.55 28.8613C556.456 28.8613 550.93 34.3875 550.93 42.4812C550.93 50.5748 556.456 56.107 564.55 56.107C572.643 56.107 578.169 50.5808 578.169 42.4812C578.169 34.3816 572.643 28.8613 564.55 28.8613Z" fill="white"/>
<path d="M727.235 68.3496H678.863V80.5879C678.863 114.154 695.448 127.383 727.235 127.383H775.607V115.145C775.607 81.5781 759.023 68.3496 727.235 68.3496ZM704.532 105.859V89.8674H749.945V106.055H727.235V105.859H704.532Z" fill="white"/>
<path d="M626.747 68.3494V45.0527H601.078C601.078 78.6191 617.663 91.8476 649.45 91.8476H660.111V68.3553H626.741L626.747 68.3494Z" fill="white"/>
<path d="M626.747 143.578V88.6895H601.078V120.275C601.078 153.842 617.663 167.07 649.45 167.07H660.111V143.578H626.741H626.747Z" fill="white"/>
<path d="M577.379 68.3496H551.711V167.068H577.379V68.3496Z" fill="white"/>
<path d="M485.578 68.9382L455.563 65.9794V28.8613H429.895V42.6828C429.895 71.6183 441.338 81.6568 455.112 86.1216H429.895V167.076H455.563V86.2699C460.55 87.8352 465.821 88.7009 470.962 89.4836L500.976 94.0255V167.082H526.645V115.745C526.645 76.0594 505.127 70.9246 485.578 68.9501" fill="white"/>
<path d="M377.968 143.576H346.969V68.3496H321.301V120.273C321.301 153.84 337.885 167.068 369.673 167.068H403.637V68.3496H377.968V143.576Z" fill="white"/>
<path d="M291.489 143.576V68.3496H265.82V120.273C265.82 153.84 282.405 167.068 314.192 167.068H324.854V143.576H291.489Z" fill="white"/>
<path d="M704.532 143.58V124.232H678.863C678.863 153.85 695.448 167.078 727.235 167.078H770.479V143.586H704.532V143.58Z" fill="white"/>
<path d="M201.339 43.2748L244.612 0.00195312L191.472 0.0138119C167.583 0.0138119 148.223 19.3852 148.223 43.2748H96.0446L139.317 0.00195312L86.8184 0.0138119C62.9288 0.0138119 43.5693 19.3852 43.5693 43.2748V43.2866H43.2491C19.3595 43.2866 0 62.658 0 86.5476H43.5693V119.153C43.5693 162.361 78.6417 197.362 121.849 197.273H201.345V43.2748M146.51 114.368C140.082 107.941 140.082 97.523 146.51 91.0955L169.777 114.368C163.349 120.796 152.931 120.796 146.51 114.368Z" fill="white"/>
</svg>
